PathFileType	4	(X/Y/Z)	C:/Users/beibeiliu/ov580/test_trc/User1\sequence.17_training_dense_left.trc
DataRate	CameraRate	NumFrames	NumMarkers	Units	OrigDataRate	OrigDataStartFrame	OrigNumFrames
120	120	14	19	mm	120	183	292
Frame#	Time	ThumbCMC			ThumbMCP			ThumbIP			ThumbTip			IndexMCP			IndexPIP			IndexTip			MiddleMCP			MiddlePIP			MiddleTip			RingMCP			RingPIP			RingTip			PinkyMCP			PinkyPIP			PinkyTip			BackHand1			BackHand2			BackHand3	
		X0	Y0	Z0	X1	Y1	Z1	X2	Y2	Z2	X3	Y3	Z3	X4	Y4	Z4	X5	Y5	Z5	X6	Y6	Z6	X7	Y7	Z7	X8	Y8	Z8	X9	Y9	Z9	X10	Y10	Z10	X11	Y11	Z11	X12	Y12	Z12	X13	Y13	Z13	X14	Y14	Z14	X15	Y15	Z15	X16	Y16	Z16	X17	Y17	Z17	X18	Y18	Z18	
182	1.51667	-194.644	36.57	39.0635	-169.367	26.2008	17.0078	-151.575	25.4293	-4.19766	-135.773	23.1392	-14.2505	-204.318	39.0125	-48.3798	-202.003	32.1479	-71.2435	-202.107	24.8778	-100.18	-210.372	4.02419	-48.4948	-190.478	-23.83	-32.753	-193.581	-15.2379	1.72398	-220.848	-14.2309	-33.8368	-204.189	-30.8114	-10.486	-211.571	-12.8632	19.3143	-242.004	-24.6147	-22.7495	-222.676	-36.2806	-4.3622	-222.934	-10.8417	20.4413	-256.767	26.0703	2.47373	-261.871	33.3733	39.1316	-231.01	48.523	21.3445	
183	1.525	-194.142	35.4433	38.3778	-167.885	23.1733	19.9153	-150.638	21.7667	0.159357	-136.541	17.3601	-15.4552	-203.36	37.6841	-49.2607	-196.796	33.7074	-75.3866	-197.8	28.5867	-96.9357	-214.806	4.74726	-47.1728	-193.873	-25.584	-33.0976	-196.212	-14.2828	3.94954	-226.841	-12.8582	-34.0031	-210.466	-33.8338	-10.7343	-211.532	-16.6585	16.4942	-247.587	-20.9502	-23.0831	-224.704	-30.9271	-5.16489	-220.306	-11.79	19.2	-253.284	31.7127	4.88126	-263.658	36.0579	38.2116	-229.307	49.6081	24.0076	
184	1.53333	-190.011	35.0098	37.3331	-166.92	20.8611	22.9761	-150.646	17.6193	3.30378	-134.104	14.0605	-5.89294	-202.993	37.343	-46.1333	-200.143	32.6241	-69.3575	-205.101	28.0441	-94.6253	-215.651	0.781441	-48.0274	-197.699	-25.0098	-38.2044	-196.698	-18.457	1.60212	-230.86	-14.7666	-34.617	-214.345	-33.3558	-14.0475	-215.585	-18.066	18.2672	-249.671	-18.9539	-23.21	-228.766	-30.7514	-5.89069	-226.025	-14.14	20.5459	-254.223	34.7122	3.94964	-258.631	38.5801	40.3396	-225.407	50.663	22.1858	
185	1.54167	-188.794	32.9714	39.725	-166.49	19.7372	23.8193	-146.872	17.324	5.41355	-130.874	12.0052	-5.46895	-204.447	36.5434	-47.8997	-206.107	32.2343	-69.0071	-212.122	28.3145	-93.7028	-216.327	4.31203	-48.5528	-206.568	-26.7093	-37.7451	-202.591	-20.826	0.275635	-236.138	-8.33814	-33.3742	-219.352	-33.6548	-18.0271	-217.257	-20.883	15.2879	-254.5	-10.7284	-22.3347	-236.206	-31.6786	-4.34561	-227.477	-14.7238	18.1902	-252.756	38.331	5.30663	-254.946	42.9676	38.5666	-221.675	51.0424	22.902	
186	1.55	-185.087	32.0685	41.4278	-165.048	16.7557	25.9596	-143.808	13.1543	11.7026	-129.046	7.73535	2.60079	-205.386	34.4483	-42.9415	-209.481	31.8586	-72.5583	-216.101	29.206	-91.997	-224.142	5.81617	-45.385	-210.741	-29.0099	-37.1333	-206.807	-24.1247	0.506287	-237.313	-10.0719	-33.8429	-227.779	-35.4723	-14.6085	-223.718	-22.2516	18.042	-261.068	-13.0253	-20.6616	-241.862	-29.4621	-7.94932	-227.904	-12.8917	18.3779	-256.087	39.287	8.19722	-254.786	47.7205	40.2618	-218.224	50.8043	27.0575	
187	1.55833	-188.422	28.4854	41.2037	-167.599	13.7628	27.0023	-143.802	9.41395	11.6612	-126.347	5.95641	4.33345	-206.266	33.5465	-45.9711	-208.347	32.1189	-66.9497	-218.979	30.4761	-95.3402	-221.518	3.77151	-47.9183	-218.273	-29.7559	-38.3221	-211.163	-26.0236	-1.38629	-239.469	-7.70891	-34.43	-229.948	-33.5841	-16.6712	-225.676	-26.2669	14.2394	-264.077	-9.05571	-20.4052	-247.967	-29.8307	-5.93902	-232.376	-15.8027	19.567	-247.791	41.6993	4.99125	-253.66	48.006	40.7613	-219.322	50.3655	23.2515	
188	1.56667	-184.476	27.3744	41.1792	-162.357	12.8024	26.9469	-141.796	8.27027	10.9136	-124.731	2.77851	2.29154	-204.442	33.1178	-44.9271	-208.206	31.109	-67.3535	-221.377	30.1536	-93.1619	-227.2	7.07417	-45.2434	-219.619	-28.7095	-39.3826	-210.105	-23.6676	1.97064	-245.095	-6.07107	-33.188	-236.294	-34.0863	-14.9905	-226.625	-23.7456	16.1916	-262.542	-6.88931	-20.5831	-252.265	-27.7693	-6.79938	-236.279	-18.1164	19.8754	-250.848	45.4564	4.69695	-249.297	51.1108	45.0078	-215.303	50.5105	22.3491	
189	1.575	-182.452	25.2126	40.4275	-164.724	10.3504	24.8656	-140.71	5.07801	13.2556	-120.946	0.594665	5.06636	-200.428	32.2888	-43.077	-207.358	30.2643	-68.6405	-217.297	30.0039	-91.4736	-224.926	6.79402	-46.1148	-223.802	-28.8557	-38.8714	-214.96	-24.4441	1.4949	-241.811	-5.04636	-33.8875	-238.177	-33.9504	-12.266	-226.932	-23.156	18.1705	-264.389	-4.26538	-20.4358	-250.867	-23.4367	-7.35117	-233.653	-13.8455	19.7898	-243.878	47.7871	9.70854	-245.849	53.6927	45.561	-209.7	47.6468	25.3407	
190	1.58333	-178.029	24.3237	41.3753	-158.763	8.8231	25.6856	-138.105	3.31872	11.407	-120.544	-1.20807	6.5727	-200.189	31.3969	-42.1393	-209.692	29.2929	-66.032	-217.729	30.4452	-93.4784	-224.302	6.23413	-45.9699	-220.7	-29.6433	-36.2055	-215.888	-24.6106	1.88246	-246.883	-0.653352	-30.672	-236.827	-30.3043	-14.6864	-230.352	-21.9149	18.7872	-263.397	3.96873	-18.6807	-250.352	-21.3183	-5.66946	-231.244	-10.9004	21.1793	-244.894	47.1259	5.59621	-244.201	53.8212	41.447	-205.95	48.4951	28.4242	
191	1.59167	-179.126	23.3851	39.615	-159.843	7.65158	29.7443	-140.612	0.901459	14.6252	-122.377	-5.12727	4.39547	-198.371	30.6223	-43.9109	-205.039	30.1527	-68.7407	-216.463	30.103	-91.0843	-222.588	6.49593	-44.9948	-224.677	-27.6604	-36.0648	-214.02	-22.8487	4.64477	-239.696	-2.02841	-32.2695	-238.036	-29.1926	-11.2112	-229.858	-19.3989	19.2097	-258.98	4.22265	-18.662	-250.772	-20.2013	-5.62338	-231.085	-6.94186	19.9927	-241.003	50.1015	6.79929	-240.055	55.6343	41.3897	-207.367	48.6763	28.2733	
192	1.6	-174.366	22.2953	43.3137	-156.406	6.95742	28.22	-139.713	-0.113527	10.8522	-117.878	-7.487	5.98468	-195.207	32.1978	-46.0295	-204.222	29.7813	-65.8592	-209.621	29.6457	-94.3733	-220.88	9.60992	-43.3765	-224.023	-25.4749	-34.3923	-214.696	-23.0534	3.819	-241.856	-0.0275629	-30.0651	-236.872	-28.2053	-10.6584	-223.931	-16.8203	19.71	-262.353	6.07211	-17.1296	-251.8	-19.2732	-4.01239	-232.102	-9.13224	23.2629	-238.069	50.4957	10.5618	-234.522	55.4731	47.1377	-202.788	48.7804	28.4305	
193	1.60833	-173.749	23.2286	45.0624	-160.139	4.98474	27.4601	-139.206	-1.61468	8.94713	-119.602	-7.9728	7.35917	-192.195	32.0816	-47.3038	-196.929	28.8283	-69.0077	-207.988	29.8989	-94.0778	-218.632	5.9609	-45.1323	-222.21	-24.8375	-34.8166	-214.666	-20.6497	4.39907	-241.178	-0.11992	-30.1282	-234.643	-26.2249	-10.2327	-227.05	-17.1958	18.4982	-256.744	9.50851	-18.168	-249.874	-17.7653	-3.05662	-230.216	-3.97769	25.1806	-237.666	51.2047	6.80939	-237.563	59.5475	45.1142	-199.61	49.7165	27.3451	
194	1.61667	-175.634	23.0262	39.7905	-157.531	5.65752	26.2988	-141.842	-2.74638	10.971	-122.391	-9.0095	0.473922	-190.31	31.8555	-46.5319	-192.589	28.3634	-72.9459	-197.238	27.9738	-93.2344	-215.62	8.55601	-45.2652	-219.159	-25.8029	-33.2213	-214.998	-20.3405	3.33603	-238.969	4.50539	-30.8098	-235.501	-24.5722	-12.5911	-223.62	-12.4113	20.7039	-257.153	9.23994	-18.7513	-245.249	-14.9686	-1.77308	-228.508	-1.30042	22.3561	-236.484	52.7724	8.71157	-235.314	57.108	44.7867	-201.335	51.5621	28.7994	
195	1.625	-175.815	23.2064	42.6289	-160.66	5.38184	26.4726	-140.251	-1.70957	7.79894	-124.13	-11.0963	2.60053	-185.975	32.875	-44.6618	-188.785	28.9019	-73.5116	-192.393	26.9785	-96.1259	-215.889	8.92276	-46.8671	-220.695	-23.1283	-37.286	-211.08	-17.9141	4.48052	-239.919	4.66719	-30.6225	-235.735	-24.0455	-12.3895	-225.837	-13.8962	18.4042	-255.246	7.11124	-19.2967	-244.965	-14.3752	-5.73699	-227.332	1.83458	19.8414	-234.904	54.1907	6.5092	-233.873	58.3936	40.6199	-200.749	53.1248	23.1268	
